<svg width="684" height="483" viewBox="0 0 684 483" fill="none" xmlns="http://www.w3.org/2000/svg">
<g clip-path="url(#clip0_935:2)">
<path d="M270 434.91L368.86 378.38M31.4299 266.57L376 67.6199L614.58 205.36L270 404.3L31.4299 266.57ZM141 360.44L270 434.91V404.3L141 360.44ZM31.4299 266.57V297.18L119.56 348.06L31.4299 266.57ZM552.36 273.44L616.23 236.91L614.58 205.36L552.36 273.44ZM391 365.69L528.52 287.06L391 365.69Z" stroke="#231F20" stroke-width="2" stroke-linejoin="round"/>
<path d="M107.75 383.31C124.5 371.53 137.46 389 137.46 389C137.46 389 142.68 361.4 140.88 350.74C139.08 340.08 133.32 337.14 126.16 340.61C115.55 345.74 107.75 383.31 107.75 383.31ZM415.35 379.23C415.35 379.23 393.45 378.61 388.57 402.12C388.57 402.12 367.12 383.27 366.92 371.49C366.8 363.49 371.92 359.49 382.32 362.39C392.72 365.29 415.32 379.23 415.32 379.23H415.35Z" stroke="#231F20" stroke-width="2" stroke-linejoin="round"/>
<path d="M129 381.8C129 381.8 124.12 398.69 124.13 434.91M401 398.87C397.301 401.207 392.97 402.342 388.6 402.12C393.48 378.6 415.38 379.23 415.38 379.23C414.036 383.207 412.155 386.982 409.79 390.45L401 398.87ZM111 437C111 437 109.54 432.86 117.5 379.37L111 437Z" stroke="#231F20" stroke-width="2" stroke-linejoin="round"/>
<path d="M516.85 135.65C516.85 135.65 534.08 132.12 570.2 135.02M136.79 452.94C135.89 452.62 134.95 452.23 133.94 451.82C133.94 451.82 134.84 456.1 136.17 460.77C137.007 463.997 138.173 467.131 139.65 470.12C142.65 475.6 135.71 476.83 133.93 472.91C133.55 472.1 132.93 470.65 132.25 468.91C129.56 462.32 125.97 455.57 125.97 455.57C125.97 455.57 126.7 466.33 127.55 473.57C127.73 475.06 127.87 476.2 127.97 476.84C128.57 480.52 122.03 482.51 121.34 476.78C120.65 471.05 118.41 458.88 118.41 458.88C118.41 458.88 114.88 474 114.62 478C114.38 481.66 107.73 482.69 108.68 477.41C109.63 472.13 109.68 462.14 111.01 456.1C110.47 456.66 106.07 462.84 103.87 466.36C101.67 469.88 97.7 467.48 99.61 463.19C101.52 458.9 104.25 452.87 104.88 447.53V447.38C106.2 436 119.64 430.21 128.5 437.47C129.543 438.328 130.51 439.275 131.39 440.3C135.52 444.08 142.49 449.83 146.25 449.84C151.59 449.84 153.05 459.01 136.79 452.95V452.94ZM520.05 114.61C520.05 114.61 488.87 118.53 478.53 126.81C477.44 127.68 511.96 145.63 511.96 145.63C518.44 145.21 523.36 144.68 523.36 144.68C523.36 144.68 506.98 130.38 520.06 114.61C520.06 114.61 521.89 115.47 522.54 123.5L520.05 114.61ZM572.85 122.64C572.85 122.64 569.3 120.28 515.35 123.96L572.85 122.64Z" stroke="#231F20" stroke-width="2" stroke-linejoin="round"/>
<path d="M587.15 149.1C586.9 148.17 586.59 147.21 586.26 146.17C586.26 146.17 590.46 147.41 595 149.1C598.137 150.19 601.153 151.6 604 153.31C609.22 156.76 611 149.92 607.24 147.83C606.46 147.39 605.07 146.68 603.39 145.83C597.04 142.62 590.59 138.51 590.59 138.51C590.59 138.51 601.26 140.1 608.39 141.51C609.86 141.81 610.99 142.04 611.61 142.19C615.23 143.08 617.74 136.72 612.08 135.57C606.42 134.42 594.47 131.22 594.47 131.22C594.47 131.22 609.86 128.91 613.82 128.97C617.49 129.03 619.04 122.48 613.7 122.97C608.36 123.46 598.4 122.74 592.27 123.6C592.87 123.11 599.38 119.21 603.06 117.3C606.74 115.39 604.67 111.24 600.23 112.8C595.79 114.36 589.58 116.61 584.23 116.8H584.08C572.63 117.21 565.79 130.15 572.32 139.56C573.092 140.667 573.958 141.704 574.91 142.66C578.35 147.08 583.53 154.48 583.24 158.23C582.86 163.6 591.9 165.79 587.15 149.1V149.1ZM476.79 428.1C476.79 428.1 429.6 404.85 400.1 383.94L476.79 428.1ZM391.54 393.6C391.54 393.6 457.12 430.32 470.61 438.11L391.54 393.6ZM524.07 413.61C525.52 401.73 517.99 393.77 508.31 400.81C507.92 401.09 507.54 401.4 507.15 401.74C496.41 411.08 492 457 498.5 457.86C502.75 458.46 519.93 453.86 521.68 439.28C522.77 430.23 522.83 423.7 524.07 413.59V413.61Z" stroke="#231F20" stroke-width="2" stroke-linejoin="round"/>
<path d="M517.44 398.33C517.44 398.33 494.3 395.85 488.44 419.47C482.58 443.09 477.16 438.79 471.05 433.69L469.63 440.15C469.63 440.15 488.34 470.56 514.51 451.82" stroke="#231F20" stroke-width="2" stroke-linejoin="round"/>
<path d="M528.54 287.06C526.62 283.77 525.34 280.52 525.3 277.68C525.18 269.68 530.3 265.68 540.7 268.58C544.722 269.85 548.624 271.473 552.36 273.43C562.6 278.52 573.74 285.43 573.74 285.43C573.74 285.43 551.84 284.81 546.96 308.32C546.96 308.32 534.6 297.46 528.55 287.07M486 428.08C486 428.08 483 429.33 481 427.53C479 425.73 475 430.41 471.17 433.68L486 428.08ZM517.44 398.33C517.44 398.33 512.99 398.82 509.58 404.33C503.9 413.48 498.08 428.26 502.78 457.88L517.44 398.33Z" stroke="#231F20" stroke-width="2" stroke-linejoin="round"/>
<path d="M559.35 305.06C555.651 307.397 551.32 308.532 546.95 308.31C551.83 284.79 573.73 285.42 573.73 285.42C572.386 289.397 570.505 293.172 568.14 296.64L559.35 305.06ZM635.14 334.27C635.14 334.27 588 311 558.48 290.11L635.14 334.27ZM549.92 299.77C549.92 299.77 615.5 336.49 629 344.28L549.92 299.77ZM682.46 319.78C683.91 307.9 676.38 299.94 666.7 306.98C666.31 307.26 665.93 307.57 665.54 307.91C654.8 317.28 650.42 363.15 656.88 364.06C661.13 364.66 678.31 360.06 680.06 345.48C681.16 336.43 681.22 329.89 682.46 319.78Z" stroke="#231F20" stroke-width="2" stroke-linejoin="round"/>
<path d="M675.82 304.52C675.82 304.52 652.68 302.04 646.82 325.66C640.96 349.28 635.58 345 629.47 339.88L628.05 346.34C628.05 346.34 646.76 376.75 672.93 358.01" stroke="#231F20" stroke-width="2" stroke-linejoin="round"/>
<path d="M675.82 304.52C675.82 304.52 671.37 305.01 667.96 310.52C662.28 319.67 656.46 334.45 661.16 364.07M644.34 334.27C644.34 334.27 641.34 335.52 639.34 333.72C637.34 331.92 633.34 336.6 629.51 339.87L644.34 334.27Z" stroke="#231F20" stroke-width="2" stroke-linejoin="round"/>
<path d="M76.09 273.61C80.9667 273.61 84.92 269.657 84.92 264.78C84.92 259.903 80.9667 255.95 76.09 255.95C71.2133 255.95 67.26 259.903 67.26 264.78C67.26 269.657 71.2133 273.61 76.09 273.61Z" stroke="#231F20" stroke-width="2" stroke-linejoin="round"/>
<path d="M101.86 258.88C106.737 258.88 110.69 254.927 110.69 250.05C110.69 245.173 106.737 241.22 101.86 241.22C96.9834 241.22 93.03 245.173 93.03 250.05C93.03 254.927 96.9834 258.88 101.86 258.88Z" stroke="#231F20" stroke-width="2" stroke-linejoin="round"/>
<path d="M126.55 244.79C131.427 244.79 135.38 240.837 135.38 235.96C135.38 231.083 131.427 227.13 126.55 227.13C121.673 227.13 117.72 231.083 117.72 235.96C117.72 240.837 121.673 244.79 126.55 244.79Z" stroke="#231F20" stroke-width="2" stroke-linejoin="round"/>
<path d="M367.46 101.88C372.337 101.88 376.29 97.9266 376.29 93.05C376.29 88.1733 372.337 84.22 367.46 84.22C362.583 84.22 358.63 88.1733 358.63 93.05C358.63 97.9266 362.583 101.88 367.46 101.88Z" stroke="#231F20" stroke-width="2" stroke-linejoin="round"/>
<path d="M134.45 218.35L149.92 227.13L355 109.74L337.69 99.3999L134.45 218.35ZM180.81 280.55L256.2 281.83L180.81 280.55ZM217.39 259.43L217 304L217.39 259.43ZM362.41 169.92L437.8 171.21L362.41 169.92ZM399 148.8L398.63 193.4L399 148.8ZM309.23 304.52L438.46 227.13L461.78 239.76C461.78 239.76 479.71 248.42 455.55 265.83C437.86 278.58 424.99 273.88 418.02 269.67C415.48 268.13 393.23 254.22 393.23 254.22L309.23 304.52ZM437.6 252.63L417.6 239.63L437.6 252.63ZM137.46 389C137.46 389 134.66 391.77 126.96 391.64L137.46 389ZM523.35 144.64C523.35 144.64 524.85 141.05 524.2 134.64L523.35 144.64ZM107.89 382.64C107.89 382.64 107.31 385.64 116.04 388.98L107.89 382.64ZM258.4 406.64V418.29L225.4 399.38V387.53L258.4 406.64Z" stroke="#231F20" stroke-width="2" stroke-linejoin="round"/>
<path d="M146 133.17L137.9 141.27M272.38 76.66L266.9 71.18L272.38 76.66ZM257.48 61.76L262.84 67.12L257.48 61.76ZM257.48 76.66L263 71.18L257.48 76.66ZM272.42 61.76L267.13 67L272.42 61.76ZM15.25 100.32L9.89996 95L15.25 100.32ZM0.709961 85.78L5.93996 91L0.709961 85.78ZM0.709961 100.32L6.05996 95L0.709961 100.32ZM15.25 85.81L10.13 90.9L15.25 85.81ZM204.89 23.71L196.43 15.25L204.89 23.71ZM181.89 0.709961L190.17 8.99996L181.89 0.709961ZM181.89 23.72L190.34 15.26L181.89 23.72ZM204.89 0.709961L196.78 8.80996L204.89 0.709961ZM464.3 42L455.84 33.54L464.3 42ZM441.3 19L449.58 27.28L441.3 19ZM441.3 42L449.76 33.54L441.3 42ZM464.3 19L456.2 27.1L464.3 19ZM146 156.17L137.54 147.71L146 156.17ZM123 133.17L131.28 141.45L123 133.17ZM123 156.17L131.46 147.71L123 156.17Z" stroke="#1A1A1A" stroke-width="2" stroke-miterlimit="10"/>
</g>
<defs>
<clipPath id="clip0_935:2">
<rect width="683.63" height="482.05" fill="white"/>
</clipPath>
</defs>
</svg>
